<svg xmlns="http://www.w3.org/2000/svg" viewBox="0 0 420 140" role="img" aria-labelledby="title desc">
  <title id="title">CR Travel Service</title>
  <desc id="desc">CR Travel Service logo with a private shuttle icon.</desc>
  <defs>
    <linearGradient id="body" x1="25" x2="151" y1="34" y2="104" gradientUnits="userSpaceOnUse">
      <stop offset="0" stop-color="#ffffff"/>
      <stop offset="0.48" stop-color="#dfe6e5"/>
      <stop offset="1" stop-color="#aeb8b6"/>
    </linearGradient>
    <linearGradient id="glass" x1="50" x2="135" y1="37" y2="66" gradientUnits="userSpaceOnUse">
      <stop offset="0" stop-color="#173652"/>
      <stop offset="1" stop-color="#071827"/>
    </linearGradient>
    <linearGradient id="road" x1="18" x2="162" y1="103" y2="117" gradientUnits="userSpaceOnUse">
      <stop offset="0" stop-color="#f5b84b"/>
      <stop offset="1" stop-color="#70e0c3"/>
    </linearGradient>
  </defs>

  <rect x="12" y="17" width="156" height="106" rx="20" fill="#09233b"/>
  <path d="M25 108c28-5 88-7 135-2" fill="none" stroke="url(#road)" stroke-width="6" stroke-linecap="round"/>
  <ellipse cx="91" cy="106" rx="66" ry="5" fill="#06121d" opacity="0.55"/>

  <path d="M31 94V80l6-17 21-8c10-13 23-20 39-21h50c6 0 9 2 10 8l3 53-15 2H32Z" fill="#06121d" opacity="0.45"/>
  <path d="M30 94V80l6-17 21-8c10-13 23-20 39-21h49c6 0 9 2 10 8l4 53-16 2H31Z" fill="#e8eceb" stroke="#06121d" stroke-width="2.5" stroke-linejoin="round"/>

  <path d="M59 56c9-11 21-16 36-16h50c4 0 6 1 7 4l1 6H74c-9 0-16 3-22 9l-8 9-10 4 3-8 22-8Z" fill="#ffffff" opacity="0.7"/>
  <path d="M47 66l12-10c8-8 17-12 30-12h5l-4 27H42l5-5Z" fill="#071827"/>
  <path d="M96 45h31v27H93l3-27Z" fill="#071827"/>
  <path d="M130 45h21l2 27h-24l1-27Z" fill="#071827"/>
  <path d="M60 59c6-6 15-9 25-10" stroke="#ffffff" stroke-width="3" stroke-linecap="round" opacity="0.5"/>
  <path d="M108 65l19-13" stroke="#ffffff" stroke-width="4" stroke-linecap="square"/>
  <path d="M139 65l11-8" stroke="#ffffff" stroke-width="4" stroke-linecap="square"/>

  <path d="M54 76h101" stroke="#06121d" stroke-width="3" opacity="0.45"/>
  <path d="M72 40v56" stroke="#7e8988" stroke-width="1.5" opacity="0.6"/>
  <path d="M95 43v53" stroke="#7e8988" stroke-width="1.5" opacity="0.7"/>
  <path d="M128 43v53" stroke="#7e8988" stroke-width="1.5" opacity="0.7"/>
  <path d="M60 92h83" stroke="#9ca7a6" stroke-width="2" opacity="0.7"/>
  <path d="M101 77h8" stroke="#7e8988" stroke-width="3" stroke-linecap="round"/>
  <path d="M76 73h7" stroke="#7e8988" stroke-width="3" stroke-linecap="round"/>

  <path d="M34 66l20-6-4 11-17 5-4 10h16" fill="none" stroke="#06121d" stroke-width="2.4" stroke-linejoin="round"/>
  <path d="M35 70l14-4-3 7-15 4" fill="#f6f7f7" stroke="#7e8988" stroke-width="1"/>
  <path d="M31 85h18v10H29l1-7c0-1 0-2 1-3Z" fill="#071827"/>
  <path d="M151 64h6l2 22h-8V64Z" fill="#d83b2d"/>
  <path d="M151 72h7" stroke="#ffffff" stroke-width="2"/>
  <path d="M151 81h8" stroke="#ffffff" stroke-width="2"/>

  <path d="M58 96c-1-9-7-16-16-16s-16 7-17 16" fill="#09233b"/>
  <path d="M137 96c-1-9-7-16-16-16s-16 7-17 16" fill="#09233b"/>
  <circle cx="42" cy="96" r="12" fill="#06121d"/>
  <circle cx="42" cy="96" r="7" fill="#f8fbfb"/>
  <circle cx="42" cy="96" r="3" fill="#879291"/>
  <path d="M42 89v14M35 96h14M37 91l10 10M47 91l-10 10" stroke="#879291" stroke-width="1.3" stroke-linecap="round"/>
  <circle cx="121" cy="96" r="12" fill="#06121d"/>
  <circle cx="121" cy="96" r="7" fill="#f8fbfb"/>
  <circle cx="121" cy="96" r="3" fill="#879291"/>
  <path d="M121 89v14M114 96h14M116 91l10 10M126 91l-10 10" stroke="#879291" stroke-width="1.3" stroke-linecap="round"/>

  <text x="190" y="59" fill="#09233b" font-family="Inter, Arial, sans-serif" font-size="36" font-weight="900" letter-spacing="0">CR Travel</text>
  <text x="192" y="88" fill="#087f6a" font-family="Inter, Arial, sans-serif" font-size="21" font-weight="800" letter-spacing="0">Service</text>
  <path d="M192 102h154" stroke="#f5b84b" stroke-width="5" stroke-linecap="round"/>
  <text x="192" y="121" fill="#607086" font-family="Inter, Arial, sans-serif" font-size="11" font-weight="800" letter-spacing="0">PRIVATE TRANSFERS</text>
</svg>
